HIERARCHY
ROOT hip
{
	OFFSET 0.000000 0.000000 0.000000 
	CHANNELS 6 Xposition Yposition Zposition Xrotation Zrotation Yrotation
	JOINT abdomen
	{
		OFFSET 0.000000 3.402643 0.000000 
		CHANNELS 3 Xrotation Zrotation Yrotation
		JOINT chest
		{
			OFFSET 0.000000 8.438565 -0.680529 
			CHANNELS 3 Xrotation Zrotation Yrotation
			JOINT neck
			{
				OFFSET 0.000000 10.207942 -0.272212 
				CHANNELS 3 Xrotation Zrotation Yrotation
				JOINT head
				{
					OFFSET 0.000000 3.130431 0.000000 
					CHANNELS 3 Xrotation Zrotation Yrotation
					End Site
					{
						OFFSET 0.000000 3.130435 0.000000 
					}
				}
			}
			JOINT lCollar
			{
				OFFSET 3.470700 6.669187 -0.816635 
				CHANNELS 3 Yrotation Zrotation Xrotation
				JOINT lShldr
				{
					OFFSET 3.198488 0.000000 0.000000 
					CHANNELS 3 Zrotation Yrotation Xrotation
					JOINT lForeArm
					{
						OFFSET 10.139888 0.000000 0.000000 
						CHANNELS 3 Yrotation Zrotation Xrotation
						JOINT lHand
						{
							OFFSET 8.370511 0.000000 0.000000 
							CHANNELS 3 Zrotation Yrotation Xrotation
							End Site
							{
								OFFSET 4.083176 0.000000 0.000000 
							}
						}
					}
				}
			}
			JOINT rCollar
			{
				OFFSET -3.470700 6.669187 -0.816635 
				CHANNELS 3 Yrotation Zrotation Xrotation
				JOINT rShldr
				{
					OFFSET -3.198488 0.000000 0.000000 
					CHANNELS 3 Zrotation Yrotation Xrotation
					JOINT rForeArm
					{
						OFFSET -10.139888 0.000000 0.000000 
						CHANNELS 3 Yrotation Zrotation Xrotation
						JOINT rHand
						{
							OFFSET -8.370511 0.000000 0.000000 
							CHANNELS 3 Zrotation Yrotation Xrotation
							End Site
							{
								OFFSET -4.083176 0.000000 0.000000 
							}
						}
					}
				}
			}
		}
	}
	JOINT lThigh
	{
		OFFSET 5.308129 -1.633274 1.361059 
		CHANNELS 3 Xrotation Zrotation Yrotation
		JOINT lShin
		{
			OFFSET -2.041588 -20.007561 0.000000 
			CHANNELS 3 Xrotation Zrotation Yrotation
			JOINT lFoot
			{
				OFFSET 0.000000 -19.190928 -1.224953 
				CHANNELS 3 Xrotation Yrotation Zrotation
				End Site
				{
					OFFSET 0.000000 -2.449906 4.627600 
				}
			}
		}
	}
	JOINT rThigh
	{
		OFFSET -5.308129 -1.633274 1.361059 
		CHANNELS 3 Xrotation Zrotation Yrotation
		JOINT rShin
		{
			OFFSET 2.041588 -20.007561 0.000000 
			CHANNELS 3 Xrotation Zrotation Yrotation
			JOINT rFoot
			{
				OFFSET 0.000000 -19.190928 -1.224953 
				CHANNELS 3 Xrotation Yrotation Zrotation
				End Site
				{
					OFFSET 0.000000 -2.449906 4.627600 
				}
			}
		}
	}
}
MOTION
Frames: 20
Frame Time: 0.033333
-0.004759 49.161190 3.718776 0.097662 0.615233 -0.311347 0.000000 0.000000 0.000000 -3.457119 -0.409410 0.268873 5.108148 -0.198440 0.085968 5.771482 0.078030 -0.072219 -0.156252 9.074747 -2.568946 -7.431847 4.270064 -9.397112 0.138307 -6.532942 15.075318 0.919495 -4.391302 -3.444814 0.401752 -9.636307 -2.587454 4.278433 -5.436453 -5.577803 -0.050043 6.512957 10.809743 -0.610433 5.124024 -3.426105 2.185831 7.818013 6.266549 12.247667 -3.181509 12.430241 -11.940297 0.901013 -8.343335 2.828439 -11.388465 -9.523379 11.533978 3.733798 -8.354686 -11.236411 -0.900498 9.163921 
-0.008154 49.168999 3.688056 0.087896 0.654296 -0.350447 0.000000 0.000000 0.000000 -3.427849 -0.467911 0.281932 5.050108 -0.085379 0.086090 5.869140 -0.039018 0.011629 -0.163728 8.977085 -2.540904 -7.444374 4.445307 -9.486391 0.152724 -6.437296 15.347392 0.996465 -4.689953 -3.449922 0.304615 -9.553250 -2.566406 4.278832 -5.534108 -5.578213 -0.052524 6.476213 10.926066 -0.511826 4.953820 -3.419952 2.206594 7.793026 6.274127 12.127548 -3.223150 12.532617 -11.828984 0.853513 -8.299558 2.801691 -11.414838 -9.494910 11.505205 3.694855 -8.340637 -11.176944 -0.907071 9.170084 
-0.027911 49.157169 3.660574 0.019533 0.664063 -0.478176 0.000000 0.000000 0.000000 -3.359497 -0.487442 0.272753 5.098693 -0.173665 0.253479 5.781232 0.204829 0.087559 -0.120333 8.837688 -2.481194 -7.406342 4.660509 -9.465971 0.143341 -6.381100 15.306110 1.189943 -4.482607 -3.460614 0.367698 -9.682288 -2.497351 4.466722 -5.679610 -5.646934 -0.063482 6.444595 10.965374 -0.629789 4.956552 -3.427028 2.185806 7.827447 6.277229 12.316235 -3.201061 12.501781 -11.893459 0.882906 -8.384042 2.636124 -11.474798 -9.465109 11.838721 3.704368 -8.218391 -11.277352 -0.910742 9.170604 
-0.046789 49.168365 3.629377 0.078130 0.654296 -0.536106 0.000000 0.000000 0.000000 -3.398556 -0.477674 0.301803 5.040043 -0.233283 0.397277 5.869086 0.360917 0.148778 -0.172423 8.673939 -2.511491 -7.284800 4.897348 -9.138134 0.138765 -6.503656 15.074659 1.412065 -4.263695 -3.473836 0.449118 -9.706242 -2.535288 4.453582 -5.954124 -5.393705 -0.071700 6.496672 10.918623 -0.681790 4.679507 -3.429540 2.203881 7.813621 6.276205 12.136098 -3.203909 12.611770 -11.806149 0.868009 -8.346228 2.587196 -11.443882 -9.450685 11.702986 3.725723 -8.089942 -11.202340 -0.884241 9.095150 
-0.058494 49.166985 3.610186 0.166025 0.615232 -0.691472 0.000000 0.000000 0.000000 -3.496201 -0.448383 0.388721 5.050233 -0.216611 0.553820 5.947198 0.409716 0.205601 -0.146964 8.741253 -2.596085 -7.503942 5.051391 -9.297197 0.149296 -6.437373 15.044875 1.307201 -4.152650 -3.467297 0.535767 -9.634239 -2.622211 4.334902 -6.208969 -5.270524 -0.071197 6.498536 10.889390 -0.717820 4.951280 -3.432327 2.078504 7.868361 6.300421 12.214288 -3.233202 12.740265 -11.822813 0.870279 -8.377940 2.410200 -11.460662 -9.456223 11.804668 3.825293 -7.820711 -11.240054 -0.890982 8.962762 
-0.080136 49.166737 3.582678 0.185556 0.566403 -0.730491 0.000000 0.000000 0.000000 -3.535251 -0.419123 0.367689 5.089130 -0.218717 0.626524 6.044830 0.487794 0.271172 -0.147036 8.829803 -2.636744 -7.722086 5.176346 -9.406446 0.159455 -6.372984 14.985838 1.392438 -3.942024 -3.472416 0.565429 -9.675305 -2.661755 4.433742 -6.306156 -5.296519 -0.060627 6.455161 10.799719 -0.914364 4.792729 -3.453610 1.990566 7.944341 6.316647 12.307856 -3.191982 12.747153 -11.835498 0.871574 -8.442893 2.275186 -11.376433 -9.364717 11.837345 3.753595 -8.058076 -11.161391 -0.875464 9.011952 
-0.113487 49.162327 3.556666 0.107427 0.546874 -0.741069 0.000000 0.000000 0.000000 -3.564572 -0.467843 0.468596 5.324884 -0.115249 0.686395 5.956915 0.536537 0.268169 -0.331955 9.121607 -2.646531 -8.023148 5.272875 -9.227101 0.170646 -6.428832 15.183263 1.576879 -3.911242 -3.483444 0.518785 -9.928553 -2.698835 4.774225 -6.451991 -5.118263 -0.061596 6.424010 10.828340 -0.974222 4.808693 -3.457124 1.999966 7.974590 6.279805 12.389768 -3.115908 12.749103 -11.840288 0.888234 -8.510642 2.244421 -11.295886 -9.297457 12.007371 3.726707 -7.951020 -11.268601 -0.891073 8.974139 
-0.146332 49.166229 3.530300 0.029298 0.488281 -0.790683 0.000000 0.000000 0.000000 -3.603636 -0.467823 0.556805 5.579746 -0.054751 0.736393 5.878759 0.595030 0.254887 -0.532136 9.404552 -2.643602 -8.335077 5.368935 -9.106822 0.169251 -6.454045 15.096012 1.627739 -3.780955 -3.486255 0.550702 -10.165711 -2.721517 4.985423 -6.579143 -4.836844 -0.046579 6.488810 10.573962 -1.427886 4.683434 -3.484551 2.049044 8.032556 6.324231 12.396119 -3.065414 12.821467 -11.766369 0.913089 -8.583526 2.263247 -11.214625 -9.290921 11.993924 3.744084 -8.018360 -11.204100 -0.884185 8.921782 
-0.173262 49.178181 3.520838 -0.117191 0.458983 -0.723595 0.000000 0.000000 0.000000 -3.486449 -0.477630 0.468551 5.627909 -0.058690 0.674799 5.800663 0.526713 0.286715 -0.512487 9.324539 -2.556241 -8.295959 5.202813 -9.182115 0.166559 -6.503834 14.931256 1.708276 -3.815178 -3.500651 0.448022 -10.187874 -2.630854 4.970473 -6.499993 -5.118696 -0.060554 6.409455 10.749976 -1.611869 4.642898 -3.495573 2.225379 8.122693 6.401407 12.241020 -3.065972 12.753862 -11.625135 0.895494 -8.578407 2.507138 -11.154944 -9.352633 11.805158 3.786720 -8.048329 -11.098196 -0.858940 8.855954 
-0.195158 49.187492 3.506051 -0.097659 0.449218 -0.713656 0.000000 0.000000 0.000000 -3.515763 -0.506857 0.431530 5.500940 -0.052390 0.657550 6.005793 0.409735 0.342739 -0.502228 9.383574 -2.589867 -8.353173 5.065812 -9.155124 0.165456 -6.545409 14.892066 1.613794 -3.713318 -3.485670 0.382351 -10.243539 -2.654939 4.940102 -6.412352 -5.087560 -0.047198 6.449761 10.573156 -1.817375 4.473820 -3.517282 2.282234 8.177213 6.465741 12.074065 -3.143391 12.670046 -11.538383 0.860071 -8.507263 2.526411 -11.175328 -9.454005 11.700766 3.929471 -7.945436 -11.052348 -0.849489 8.729548 
-0.211264 49.192028 3.484381 -0.136724 0.488280 -0.567571 0.000000 0.000000 0.000000 -3.535372 -0.633558 0.322343 5.491226 0.099829 0.568017 6.083979 0.117074 0.502661 -0.631094 9.586658 -2.602512 -8.510590 4.976328 -9.240756 0.158602 -6.485073 15.066460 1.588068 -3.773588 -3.483938 0.297114 -10.091811 -2.662597 4.685021 -6.364595 -5.084122 -0.056748 6.487726 10.594393 -1.800820 4.523752 -3.516126 2.282237 8.177211 6.465741 11.995008 -3.152789 12.537910 -11.431653 0.870762 -8.499665 2.565766 -11.301713 -9.713941 11.772198 4.184780 -7.849803 -11.079730 -0.834669 8.564206 
-0.232784 49.170383 3.463101 -0.341814 0.566396 -0.491660 0.000000 0.000000 0.000000 -3.437758 -0.701860 0.247236 5.626866 -0.039135 0.620807 5.917950 0.214608 0.595402 -0.790058 9.416952 -2.507380 -8.275512 4.870430 -9.277091 0.146592 -6.487161 14.880105 1.419029 -3.734951 -3.474068 0.302411 -10.344292 -2.570030 4.753065 -6.305787 -5.067867 -0.057805 6.502283 10.672754 -1.709043 4.627193 -3.501359 2.274192 8.141729 6.413071 12.331187 -3.106273 12.480865 -11.555206 0.881168 -8.562265 2.517223 -11.253296 -9.500279 12.298875 3.882037 -7.993474 -11.384954 -0.882319 8.742536 
-0.255940 49.159809 3.430443 -0.400406 0.507800 -0.501595 0.000000 0.000000 0.000000 -3.408445 -0.682385 0.206654 5.558265 -0.039002 0.684262 6.035144 0.175605 0.675717 -0.617302 9.418583 -2.491584 -8.195771 4.509286 -9.349385 0.157166 -6.519414 14.989175 1.802971 -3.760473 -3.506427 0.288534 -10.313695 -2.538195 4.659192 -6.197729 -5.327120 -0.056680 6.451159 10.554604 -1.773888 4.564533 -3.514390 2.186147 8.239190 6.431100 12.594096 -3.056897 12.380083 -11.664556 0.877723 -8.642424 2.440603 -11.170174 -9.430718 12.518311 3.855197 -8.116706 -11.451408 -0.886048 8.774642 
-0.268024 49.173527 3.396014 -0.449234 0.468736 -0.579847 0.000000 0.000000 0.000000 -3.359600 -0.662921 0.224459 5.441331 -0.088568 0.827497 6.054676 0.175607 0.783199 -0.649356 9.340799 -2.446847 -7.989954 4.393394 -9.377376 0.155048 -6.575172 14.881984 1.951892 -3.790493 -3.515075 0.136237 -10.287212 -2.521485 4.602912 -5.913901 -5.537755 -0.056148 6.443878 10.515422 -1.995891 4.345486 -3.527483 2.331434 8.285819 6.485251 12.398911 -3.095977 12.321170 -11.549261 0.865273 -8.591754 2.489645 -11.113204 -9.427064 12.332264 3.854814 -8.101116 -11.287268 -0.872250 8.712872 
-0.283497 49.190643 3.374985 -0.576188 0.429666 -0.590258 0.000000 0.000000 0.000000 -3.340036 -0.614189 0.279982 5.558885 -0.139139 0.960938 5.917968 0.048774 0.876619 -0.797989 9.268323 -2.417134 -7.804652 4.306417 -9.445564 0.147280 -6.537520 15.008109 1.665618 -3.759077 -3.488569 0.228627 -10.428361 -2.491260 4.689559 -6.060532 -5.415935 -0.059056 6.433327 10.682174 -2.053637 4.645252 -3.531295 2.518521 8.318607 6.577643 12.193887 -3.115419 12.411167 -11.395110 0.862795 -8.546265 2.714443 -11.045215 -9.437613 12.039805 3.892874 -8.080179 -11.092896 -0.850488 8.643322 
-0.304392 49.172390 3.342216 -0.693376 0.390596 -0.727383 0.000000 0.000000 0.000000 -3.164222 -0.575294 0.188051 5.227039 -0.296949 1.273997 6.152329 0.195134 1.143991 -0.394470 8.975368 -2.296232 -7.524647 3.915726 -9.809871 0.145722 -6.491581 14.810790 1.658238 -3.798663 -3.487993 0.249863 -10.329153 -2.332620 4.378951 -5.787384 -5.642871 -0.065201 6.492847 10.517380 -2.125088 4.689787 -3.535311 2.480264 8.368682 6.562073 12.525504 -3.037325 12.308503 -11.575480 0.884022 -8.648110 2.575992 -11.038798 -9.442893 12.450240 3.913938 -7.901783 -11.279893 -0.869935 8.605202 
-0.314709 49.160816 3.291929 -0.791035 0.400352 -0.894199 0.000000 0.000000 0.000000 -3.232626 -0.643506 0.329311 5.551329 -0.158964 1.612350 5.966782 0.195106 1.426562 -0.698444 9.369392 -2.335054 -7.686170 4.190105 -9.429209 0.145400 -6.556127 14.870793 1.750940 -3.871276 -3.503621 0.505660 -10.380841 -2.383648 4.521481 -5.944239 -5.357105 -0.057464 6.503525 10.653265 -2.235774 4.575357 -3.541415 2.410441 8.376685 6.523131 12.780301 -2.981707 12.511627 -11.623290 0.889084 -8.755236 2.391769 -11.072823 -9.361083 12.793962 3.851272 -7.735517 -11.386344 -0.852151 8.605647 
-0.300111 49.177303 3.242649 -0.722684 0.498007 -0.943782 0.000000 0.000000 0.000000 -3.349905 -0.760417 0.396067 5.534567 0.028938 1.904099 6.113255 -0.263423 1.857160 -0.778905 9.697075 -2.419066 -8.028718 4.177915 -9.446614 0.152419 -6.456820 15.347835 1.965262 -3.848377 -3.516305 0.621838 -10.407467 -2.476841 4.548107 -6.101151 -5.163948 -0.061216 6.508142 10.888647 -2.062812 4.634905 -3.531870 2.447818 8.145468 6.364837 12.439186 -2.921035 12.705849 -11.408845 0.871679 -8.694071 2.341887 -11.205838 -9.411173 12.644975 3.874609 -7.520677 -11.271976 -0.850596 8.560511 
-0.294449 49.170502 3.198554 -0.771517 0.527296 -0.944600 0.000000 0.000000 0.000000 -3.301111 -0.809202 0.417762 5.517339 0.104646 2.239042 5.947201 -0.399960 2.245118 -0.672867 9.730639 -2.385675 -8.050854 3.971453 -9.680890 0.153064 -6.408642 15.336985 1.904849 -3.822727 -3.512846 0.640420 -10.417374 -2.436501 4.549232 -6.159549 -5.213001 -0.062169 6.467850 10.907315 -2.025509 4.666545 -3.529570 2.360647 8.090269 6.270830 12.593598 -2.841777 12.790992 -11.432515 0.879067 -8.756084 2.253798 -11.303596 -9.466511 12.865695 3.940883 -7.370951 -11.357929 -0.863008 8.523662 
-0.291427 49.149361 3.157290 -0.810587 0.566350 -1.043169 0.000000 0.000000 0.000000 -3.262077 -0.848233 0.468260 5.491377 0.076281 2.711136 5.927687 -0.341424 2.662441 -0.761932 9.645512 -2.342974 -7.876449 4.099401 -9.721390 0.155047 -6.344377 15.423360 1.399235 -3.892693 -3.472993 0.754120 -10.304545 -2.386922 4.283034 -6.239120 -5.102147 -0.062209 6.495272 10.937163 -1.932709 4.593958 -3.523612 2.215583 8.063176 6.248210 12.954712 -2.851678 12.805526 -11.599961 0.896280 -8.794566 2.000384 -11.459456 -9.521016 13.363203 3.999378 -7.133134 -11.571054 -0.862418 8.485246 
